<mxfile host="65bd71144e">
    <diagram id="QuM1fTrO03zXdfaz_BHU" name="Page-1">
        <mxGraphModel dx="1097" dy="644" grid="1" gridSize="10" guides="1" tooltips="1" connect="1" arrows="1" fold="1" page="1" pageScale="1" pageWidth="850" pageHeight="1100" math="0" shadow="0">
            <root>
                <mxCell id="0"/>
                <mxCell id="1" parent="0"/>
                <mxCell id="2" value="Usuarios" style="whiteSpace=wrap;html=1;align=center;" vertex="1" parent="1">
                    <mxGeometry x="140" y="170" width="100" height="40" as="geometry"/>
                </mxCell>
                <mxCell id="7" value="Sistema IOT" style="text;html=1;strokeColor=none;fillColor=none;align=center;verticalAlign=middle;whiteSpace=wrap;rounded=0;" vertex="1" parent="1">
                    <mxGeometry x="310" width="160" height="30" as="geometry"/>
                </mxCell>
                <mxCell id="8" value="Dispositivos" style="whiteSpace=wrap;html=1;align=center;" vertex="1" parent="1">
                    <mxGeometry x="560" y="180" width="100" height="40" as="geometry"/>
                </mxCell>
                <mxCell id="9" value="Direccion" style="ellipse;whiteSpace=wrap;html=1;align=center;" vertex="1" parent="1">
                    <mxGeometry x="20" y="180" width="100" height="40" as="geometry"/>
                </mxCell>
                <mxCell id="10" value="Eventos" style="whiteSpace=wrap;html=1;align=center;" vertex="1" parent="1">
                    <mxGeometry x="550" y="410" width="100" height="40" as="geometry"/>
                </mxCell>
                <mxCell id="11" value="Nombre" style="ellipse;whiteSpace=wrap;html=1;align=center;" vertex="1" parent="1">
                    <mxGeometry x="40" y="120" width="100" height="40" as="geometry"/>
                </mxCell>
                <mxCell id="12" value="Nombre" style="ellipse;whiteSpace=wrap;html=1;align=center;" vertex="1" parent="1">
                    <mxGeometry x="550" y="470" width="100" height="40" as="geometry"/>
                </mxCell>
                <mxCell id="13" value="Nombre" style="ellipse;whiteSpace=wrap;html=1;align=center;" vertex="1" parent="1">
                    <mxGeometry x="560" y="110" width="100" height="40" as="geometry"/>
                </mxCell>
                <mxCell id="14" value="Attribute" style="ellipse;whiteSpace=wrap;html=1;align=center;fontStyle=4;" vertex="1" parent="1">
                    <mxGeometry x="420" y="470" width="100" height="40" as="geometry"/>
                </mxCell>
                <mxCell id="15" value="Id_dispo" style="ellipse;whiteSpace=wrap;html=1;align=center;fontStyle=4;" vertex="1" parent="1">
                    <mxGeometry x="425" y="180" width="100" height="40" as="geometry"/>
                </mxCell>
                <mxCell id="16" value="Propiedad" style="whiteSpace=wrap;html=1;align=center;" vertex="1" parent="1">
                    <mxGeometry x="140" y="290" width="100" height="40" as="geometry"/>
                </mxCell>
            </root>
        </mxGraphModel>
    </diagram>
</mxfile>